<svg width="120" height="200" viewBox="0 0 120 200" fill="none" xmlns="http://www.w3.org/2000/svg">
<path fill-rule="evenodd" clip-rule="evenodd" d="M0 0H21.0145C21.2733 4.46169 24.9734 8 29.5 8H30V23H29.8182C28.814 23 28 23.814 28 24.8182C28 25.8223 28.814 26.6364 29.8182 26.6364H30V33.0003H29.8182C28.814 33.0003 28 33.8143 28 34.8185C28 35.8226 28.814 36.6367 29.8182 36.6367H30V43.0003H29.8182C28.814 43.0003 28 43.8143 28 44.8184C28 45.8226 28.814 46.6366 29.8182 46.6366H30V53H29.8182C28.814 53 28 53.814 28 54.8181C28 55.8223 28.814 56.6363 29.8182 56.6363H30V63.0002H29.8182C28.814 63.0002 28 63.8142 28 64.8183C28 65.8225 28.814 66.6365 29.8182 66.6365H30V73.0001H29.8182C28.814 73.0001 28 73.8141 28 74.8183C28 75.8224 28.814 76.6365 29.8182 76.6365H30V83.0001H29.8182C28.814 83.0001 28 83.8141 28 84.8182C28 85.8224 28.814 86.6364 29.8182 86.6364H30V93.0003H29.8182C28.814 93.0003 28 93.8143 28 94.8184C28 95.8226 28.814 96.6366 29.8182 96.6366H30V103H29.8182C28.814 103 28 103.814 28 104.818C28 105.823 28.814 106.637 29.8182 106.637H30V113H29.8182C28.814 113 28 113.814 28 114.818C28 115.822 28.814 116.637 29.8182 116.637H30V123H29.8182C28.814 123 28 123.814 28 124.818C28 125.822 28.814 126.636 29.8182 126.636H30V133H29.8182C28.814 133 28 133.814 28 134.818C28 135.822 28.814 136.636 29.8182 136.636H30V143H29.8182C28.814 143 28 143.814 28 144.818C28 145.823 28.814 146.637 29.8182 146.637H30V153H29.8182C28.814 153 28 153.814 28 154.818C28 155.823 28.814 156.637 29.8182 156.637H30V163H29.8182C28.814 163 28 163.814 28 164.818C28 165.822 28.814 166.636 29.8182 166.636H30V173H29.8182C28.814 173 28 173.814 28 174.818C28 175.822 28.814 176.636 29.8182 176.636H30V188H29.5C24.8056 188 21 191.806 21 196.5C21 197.748 21.2688 198.933 21.7517 200H0V0Z" fill="#EDCE29"/>
<path fill-rule="evenodd" clip-rule="evenodd" d="M110 0H38.9841C38.7253 4.46169 35.0252 8 30.4986 8H30V23H30.1798C31.1839 23 31.998 23.814 31.998 24.8182C31.998 25.8223 31.1839 26.6364 30.1798 26.6364H30V33.0004H30.1798C31.1839 33.0004 31.998 33.8144 31.998 34.8185C31.998 35.8227 31.1839 36.6367 30.1798 36.6367H30V43.0002H30.1798C31.1839 43.0002 31.998 43.8143 31.998 44.8184C31.998 45.8226 31.1839 46.6366 30.1798 46.6366H30V53H30.1798C31.1839 53 31.998 53.814 31.998 54.8182C31.998 55.8223 31.1839 56.6364 30.1798 56.6364H30V63.0001H30.1798C31.1839 63.0001 31.998 63.8142 31.998 64.8183C31.998 65.8225 31.1839 66.6365 30.1798 66.6365H30V73.0001H30.1798C31.1839 73.0001 31.998 73.8141 31.998 74.8183C31.998 75.8225 31.1839 76.6365 30.1798 76.6365H30V83H30.1798C31.1839 83 31.998 83.814 31.998 84.8182C31.998 85.8223 31.1839 86.6364 30.1798 86.6364H30V93.0002H30.1798C31.1839 93.0002 31.998 93.8143 31.998 94.8184C31.998 95.8226 31.1839 96.6366 30.1798 96.6366H30V103H30.1798C31.1839 103 31.998 103.814 31.998 104.818C31.998 105.823 31.1839 106.637 30.1798 106.637H30V113H30.1798C31.1839 113 31.998 113.814 31.998 114.818C31.998 115.822 31.1839 116.636 30.1798 116.636H30V123H30.1798C31.1839 123 31.998 123.814 31.998 124.818C31.998 125.822 31.1839 126.636 30.1798 126.636H30V133H30.1798C31.1839 133 31.998 133.814 31.998 134.818C31.998 135.822 31.1839 136.636 30.1798 136.636H30V143H30.1798C31.1839 143 31.998 143.814 31.998 144.818C31.998 145.823 31.1839 146.637 30.1798 146.637H30V153H30.1798C31.1839 153 31.998 153.814 31.998 154.818C31.998 155.823 31.1839 156.637 30.1798 156.637H30V163H30.1798C31.1839 163 31.998 163.814 31.998 164.818C31.998 165.822 31.1839 166.636 30.1798 166.636H30V173H30.1798C31.1839 173 31.998 173.814 31.998 174.818C31.998 175.822 31.1839 176.636 30.1798 176.636H30V188H30.4986C35.193 188 38.9986 191.806 38.9986 196.5C38.9986 197.748 38.7298 198.933 38.2469 200H110C115.523 200 120 195.523 120 190V10C120 4.47716 115.523 0 110 0Z" fill="#F0F1F3"/>
</svg>
