<svg width="117" height="117" viewBox="0 0 117 117" fill="none" xmlns="http://www.w3.org/2000/svg">
<path fill-rule="evenodd" clip-rule="evenodd" d="M110.601 58.1767C110.463 58.3893 110.463 58.6649 110.601 58.8746L115.408 66.3895C116.867 68.6598 117.307 71.4663 116.606 74.0811C115.906 76.6959 114.126 78.9063 111.718 80.1523L103.793 84.2467C103.571 84.3636 103.431 84.6032 103.443 84.8548L103.856 93.7744C103.982 96.4791 102.96 99.1238 101.046 101.038C99.1295 102.949 96.4099 103.997 93.7831 103.847L84.8665 103.434C84.6269 103.449 84.3723 103.566 84.2555 103.787L80.1581 111.713C78.9151 114.121 76.7046 115.903 74.0898 116.601C71.475 117.305 68.6716 116.861 66.3952 115.4L58.8833 110.589C58.6646 110.452 58.3921 110.449 58.1854 110.589L50.6675 115.403C49.104 116.406 47.289 116.927 45.4589 116.927C44.6292 116.927 43.7906 116.822 42.9759 116.604C40.3611 115.903 38.1507 114.124 36.9047 111.716L32.8103 103.79C32.6904 103.569 32.3879 103.428 32.2022 103.44L23.2826 103.853C20.6079 104.027 17.9362 102.961 16.0193 101.044C14.1083 99.1298 13.084 96.4821 13.2098 93.7804L13.6261 84.8578C13.6381 84.6032 13.4973 84.3636 13.2727 84.2467L5.34744 80.1493C2.93931 78.9063 1.16017 76.6959 0.459303 74.0811C-0.24157 71.4663 0.198722 68.6628 1.66037 66.3865L6.47063 58.8746C6.60841 58.6619 6.60841 58.3863 6.47063 58.1767L1.65738 50.6588C0.198722 48.3884 -0.24157 45.5819 0.459303 42.9672C1.16017 40.3524 2.93931 38.1419 5.34744 36.8959L13.2727 32.8015C13.4943 32.6847 13.6351 32.4451 13.6231 32.1935L13.2098 23.2738C13.084 20.5692 14.1053 17.9214 16.0193 16.0105C17.9332 14.0996 20.6378 13.0423 23.2826 13.201L32.2022 13.6204C32.4688 13.6323 32.6964 13.4916 32.8132 13.2669L36.9107 5.34169C38.1537 2.93356 40.3641 1.15143 42.9789 0.45355C45.5937 -0.250318 48.3972 0.192969 50.6735 1.65462L58.1854 6.46488C58.4041 6.59966 58.6766 6.60565 58.8833 6.46488L58.8863 6.46488L66.4012 1.65162C68.6715 0.192969 71.475 -0.250318 74.0928 0.45355C76.7076 1.15442 78.9181 2.93356 80.1641 5.34169L84.2585 13.2669C84.3783 13.4916 84.6778 13.6024 84.8665 13.6174L93.7861 13.204C96.4878 13.0663 99.1385 14.0996 101.049 16.0135C102.96 17.9274 103.985 20.5752 103.859 23.2768L103.446 32.1935C103.434 32.4481 103.574 32.6877 103.799 32.8045L111.724 36.9019C114.132 38.1449 115.912 40.3554 116.612 42.9701C117.313 45.5849 116.873 48.3884 115.411 50.6648L110.601 58.1767ZM80.1391 39.3345L83.0406 39.2707C82.1053 38.9753 81.0832 38.9873 80.1391 39.3345Z" fill="#3B4148"/>
</svg>
